<svg xmlns="http://www.w3.org/2000/svg" xmlns:xlink="http://www.w3.org/1999/xlink" width="134" zoomAndPan="magnify" viewBox="0 0 100.5 34.499999" height="46" preserveAspectRatio="xMidYMid meet" version="1.2"><defs><clipPath id="727ac70a5e"><path d="M 0.472656 0 L 99.535156 0 L 99.535156 34.007812 L 0.472656 34.007812 Z M 0.472656 0 "/></clipPath></defs><g id="9fc2ba145f"><g clip-rule="nonzero" clip-path="url(#727ac70a5e)"><path style=" stroke:none;fill-rule:nonzero;fill:#ffffff;fill-opacity:1;" d="M 0.472656 0 L 99.535156 0 L 99.535156 34.007812 L 0.472656 34.007812 Z M 0.472656 0 "/><path style=" stroke:none;fill-rule:nonzero;fill:#ffffff;fill-opacity:1;" d="M 0.472656 0 L 99.535156 0 L 99.535156 34.007812 L 0.472656 34.007812 Z M 0.472656 0 "/></g><g style="fill:#656565;fill-opacity:1;"><g transform="translate(10.260201, 32.599871)"><path style="stroke:none" d="M 1.40625 0 L 0.5625 0 L 0.5625 -4.265625 L 1.40625 -4.265625 Z M 1.40625 0 "/></g><g transform="translate(12.216661, 32.599871)"><path style="stroke:none" d="M 1.375 0 L 0.5625 0 L 0.5625 -4.265625 L 1.515625 -4.265625 L 3.234375 -1.515625 L 3.3125 -1.53125 L 3.3125 -4.265625 L 4.125 -4.265625 L 4.125 0 L 3.265625 0 L 1.453125 -2.9375 L 1.375 -2.921875 Z M 1.375 0 "/></g><g transform="translate(16.897564, 32.599871)"><path style="stroke:none" d="M 3.421875 -4.265625 L 3.421875 -3.5625 L 2.1875 -3.5625 L 2.1875 0 L 1.34375 0 L 1.34375 -3.5625 L 0.109375 -3.5625 L 0.109375 -4.265625 Z M 3.421875 -4.265625 "/></g><g transform="translate(20.436711, 32.599871)"><path style="stroke:none" d="M 1.40625 -1.875 L 1.40625 -0.703125 L 3.4375 -0.703125 L 3.4375 0 L 0.5625 0 L 0.5625 -4.265625 L 3.390625 -4.265625 L 3.390625 -3.5625 L 1.40625 -3.5625 L 1.40625 -2.5625 L 3.140625 -2.5625 L 3.140625 -1.875 Z M 1.40625 -1.875 "/></g><g transform="translate(24.107263, 32.599871)"><path style="stroke:none" d="M 0.5625 0 L 0.5625 -4.265625 L 2.265625 -4.265625 C 2.710938 -4.265625 3.046875 -4.160156 3.265625 -3.953125 C 3.492188 -3.753906 3.609375 -3.476562 3.609375 -3.125 C 3.609375 -2.863281 3.539062 -2.648438 3.40625 -2.484375 C 3.28125 -2.316406 3.085938 -2.191406 2.828125 -2.109375 L 2.828125 -2.046875 C 2.960938 -1.984375 3.066406 -1.894531 3.140625 -1.78125 C 3.222656 -1.664062 3.304688 -1.5 3.390625 -1.28125 L 3.8125 0 L 2.9375 0 L 2.53125 -1.28125 C 2.476562 -1.40625 2.425781 -1.503906 2.375 -1.578125 C 2.320312 -1.648438 2.253906 -1.703125 2.171875 -1.734375 C 2.085938 -1.765625 1.984375 -1.78125 1.859375 -1.78125 L 1.40625 -1.78125 L 1.40625 0 Z M 2.171875 -2.453125 C 2.578125 -2.453125 2.78125 -2.640625 2.78125 -3.015625 C 2.78125 -3.410156 2.578125 -3.609375 2.171875 -3.609375 L 1.40625 -3.609375 L 1.40625 -2.453125 Z M 2.171875 -2.453125 "/></g><g transform="translate(28.099025, 32.599871)"><path style="stroke:none" d="M 1.40625 0 L 0.5625 0 L 0.5625 -4.265625 L 1.40625 -4.265625 Z M 1.40625 0 "/></g><g transform="translate(30.055485, 32.599871)"><path style="stroke:none" d="M 2.328125 0.0625 C 1.929688 0.0625 1.582031 -0.015625 1.28125 -0.171875 C 0.988281 -0.335938 0.757812 -0.582031 0.59375 -0.90625 C 0.425781 -1.238281 0.34375 -1.648438 0.34375 -2.140625 C 0.34375 -2.628906 0.425781 -3.035156 0.59375 -3.359375 C 0.757812 -3.691406 0.988281 -3.9375 1.28125 -4.09375 C 1.582031 -4.25 1.929688 -4.328125 2.328125 -4.328125 C 2.722656 -4.328125 3.066406 -4.25 3.359375 -4.09375 C 3.660156 -3.9375 3.894531 -3.691406 4.0625 -3.359375 C 4.226562 -3.035156 4.3125 -2.628906 4.3125 -2.140625 C 4.3125 -1.648438 4.226562 -1.238281 4.0625 -0.90625 C 3.894531 -0.582031 3.660156 -0.335938 3.359375 -0.171875 C 3.066406 -0.015625 2.722656 0.0625 2.328125 0.0625 Z M 2.328125 -0.671875 C 2.691406 -0.671875 2.96875 -0.785156 3.15625 -1.015625 C 3.34375 -1.253906 3.4375 -1.628906 3.4375 -2.140625 C 3.4375 -2.648438 3.34375 -3.019531 3.15625 -3.25 C 2.96875 -3.488281 2.691406 -3.609375 2.328125 -3.609375 C 1.960938 -3.609375 1.679688 -3.488281 1.484375 -3.25 C 1.296875 -3.019531 1.203125 -2.648438 1.203125 -2.140625 C 1.203125 -1.628906 1.296875 -1.253906 1.484375 -1.015625 C 1.679688 -0.785156 1.960938 -0.671875 2.328125 -0.671875 Z M 2.328125 -0.671875 "/></g><g transform="translate(34.707186, 32.599871)"><path style="stroke:none" d="M 0.5625 0 L 0.5625 -4.265625 L 2.265625 -4.265625 C 2.710938 -4.265625 3.046875 -4.160156 3.265625 -3.953125 C 3.492188 -3.753906 3.609375 -3.476562 3.609375 -3.125 C 3.609375 -2.863281 3.539062 -2.648438 3.40625 -2.484375 C 3.28125 -2.316406 3.085938 -2.191406 2.828125 -2.109375 L 2.828125 -2.046875 C 2.960938 -1.984375 3.066406 -1.894531 3.140625 -1.78125 C 3.222656 -1.664062 3.304688 -1.5 3.390625 -1.28125 L 3.8125 0 L 2.9375 0 L 2.53125 -1.28125 C 2.476562 -1.40625 2.425781 -1.503906 2.375 -1.578125 C 2.320312 -1.648438 2.253906 -1.703125 2.171875 -1.734375 C 2.085938 -1.765625 1.984375 -1.78125 1.859375 -1.78125 L 1.40625 -1.78125 L 1.40625 0 Z M 2.171875 -2.453125 C 2.578125 -2.453125 2.78125 -2.640625 2.78125 -3.015625 C 2.78125 -3.410156 2.578125 -3.609375 2.171875 -3.609375 L 1.40625 -3.609375 L 1.40625 -2.453125 Z M 2.171875 -2.453125 "/></g><g transform="translate(38.698948, 32.599871)"><path style="stroke:none" d="M 1.890625 0.0625 C 1.597656 0.0625 1.332031 0.0234375 1.09375 -0.046875 C 0.863281 -0.117188 0.671875 -0.210938 0.515625 -0.328125 C 0.367188 -0.453125 0.253906 -0.585938 0.171875 -0.734375 L 0.640625 -1.296875 L 0.703125 -1.296875 C 0.835938 -1.109375 1.003906 -0.957031 1.203125 -0.84375 C 1.398438 -0.726562 1.628906 -0.671875 1.890625 -0.671875 C 2.117188 -0.671875 2.289062 -0.71875 2.40625 -0.8125 C 2.519531 -0.90625 2.578125 -1.035156 2.578125 -1.203125 C 2.578125 -1.304688 2.554688 -1.390625 2.515625 -1.453125 C 2.484375 -1.523438 2.421875 -1.582031 2.328125 -1.625 C 2.242188 -1.675781 2.128906 -1.722656 1.984375 -1.765625 L 1.4375 -1.890625 C 1.050781 -1.972656 0.765625 -2.113281 0.578125 -2.3125 C 0.390625 -2.519531 0.296875 -2.789062 0.296875 -3.125 C 0.296875 -3.363281 0.351562 -3.570312 0.46875 -3.75 C 0.59375 -3.9375 0.769531 -4.078125 1 -4.171875 C 1.238281 -4.273438 1.519531 -4.328125 1.84375 -4.328125 C 2.164062 -4.328125 2.441406 -4.285156 2.671875 -4.203125 C 2.910156 -4.117188 3.113281 -3.984375 3.28125 -3.796875 L 2.859375 -3.234375 L 2.78125 -3.234375 C 2.664062 -3.359375 2.53125 -3.453125 2.375 -3.515625 C 2.21875 -3.578125 2.039062 -3.609375 1.84375 -3.609375 C 1.601562 -3.609375 1.421875 -3.566406 1.296875 -3.484375 C 1.179688 -3.398438 1.125 -3.289062 1.125 -3.15625 C 1.125 -3.019531 1.164062 -2.910156 1.25 -2.828125 C 1.332031 -2.742188 1.476562 -2.679688 1.6875 -2.640625 L 2.25 -2.53125 C 2.664062 -2.4375 2.96875 -2.285156 3.15625 -2.078125 C 3.34375 -1.867188 3.4375 -1.597656 3.4375 -1.265625 C 3.4375 -0.992188 3.378906 -0.757812 3.265625 -0.5625 C 3.148438 -0.363281 2.976562 -0.207031 2.75 -0.09375 C 2.519531 0.0078125 2.234375 0.0625 1.890625 0.0625 Z M 1.890625 0.0625 "/></g><g transform="translate(42.36658, 32.599871)"><path style="stroke:none" d=""/></g><g transform="translate(43.776983, 32.599871)"><path style="stroke:none" d="M 4.09375 0 L 3.21875 0 L 2.890625 -0.984375 L 1.25 -0.984375 L 0.9375 0 L 0.0625 0 L 1.546875 -4.265625 L 2.625 -4.265625 Z M 2.03125 -3.375 L 1.484375 -1.6875 L 2.65625 -1.6875 L 2.109375 -3.375 Z M 2.03125 -3.375 "/></g><g transform="translate(47.93811, 32.599871)"><path style="stroke:none" d="M 1.375 0 L 0.5625 0 L 0.5625 -4.265625 L 1.515625 -4.265625 L 3.234375 -1.515625 L 3.3125 -1.53125 L 3.3125 -4.265625 L 4.125 -4.265625 L 4.125 0 L 3.265625 0 L 1.453125 -2.9375 L 1.375 -2.921875 Z M 1.375 0 "/></g><g transform="translate(52.619012, 32.599871)"><path style="stroke:none" d="M 2.09375 -4.265625 C 2.78125 -4.265625 3.304688 -4.085938 3.671875 -3.734375 C 4.046875 -3.378906 4.234375 -2.847656 4.234375 -2.140625 C 4.234375 -1.429688 4.046875 -0.894531 3.671875 -0.53125 C 3.304688 -0.175781 2.78125 0 2.09375 0 L 0.5625 0 L 0.5625 -4.265625 Z M 2.046875 -0.703125 C 2.484375 -0.703125 2.8125 -0.816406 3.03125 -1.046875 C 3.25 -1.273438 3.359375 -1.640625 3.359375 -2.140625 C 3.359375 -2.640625 3.25 -3 3.03125 -3.21875 C 2.8125 -3.445312 2.484375 -3.5625 2.046875 -3.5625 L 1.40625 -3.5625 L 1.40625 -0.703125 Z M 2.046875 -0.703125 "/></g><g transform="translate(57.183111, 32.599871)"><path style="stroke:none" d=""/></g><g transform="translate(58.593514, 32.599871)"><path style="stroke:none" d="M 3.421875 -4.265625 L 3.421875 -3.5625 L 2.1875 -3.5625 L 2.1875 0 L 1.34375 0 L 1.34375 -3.5625 L 0.109375 -3.5625 L 0.109375 -4.265625 Z M 3.421875 -4.265625 "/></g><g transform="translate(62.132662, 32.599871)"><path style="stroke:none" d="M 0.5625 0 L 0.5625 -4.265625 L 2.265625 -4.265625 C 2.710938 -4.265625 3.046875 -4.160156 3.265625 -3.953125 C 3.492188 -3.753906 3.609375 -3.476562 3.609375 -3.125 C 3.609375 -2.863281 3.539062 -2.648438 3.40625 -2.484375 C 3.28125 -2.316406 3.085938 -2.191406 2.828125 -2.109375 L 2.828125 -2.046875 C 2.960938 -1.984375 3.066406 -1.894531 3.140625 -1.78125 C 3.222656 -1.664062 3.304688 -1.5 3.390625 -1.28125 L 3.8125 0 L 2.9375 0 L 2.53125 -1.28125 C 2.476562 -1.40625 2.425781 -1.503906 2.375 -1.578125 C 2.320312 -1.648438 2.253906 -1.703125 2.171875 -1.734375 C 2.085938 -1.765625 1.984375 -1.78125 1.859375 -1.78125 L 1.40625 -1.78125 L 1.40625 0 Z M 2.171875 -2.453125 C 2.578125 -2.453125 2.78125 -2.640625 2.78125 -3.015625 C 2.78125 -3.410156 2.578125 -3.609375 2.171875 -3.609375 L 1.40625 -3.609375 L 1.40625 -2.453125 Z M 2.171875 -2.453125 "/></g><g transform="translate(66.124424, 32.599871)"><path style="stroke:none" d="M 4.09375 0 L 3.21875 0 L 2.890625 -0.984375 L 1.25 -0.984375 L 0.9375 0 L 0.0625 0 L 1.546875 -4.265625 L 2.625 -4.265625 Z M 2.03125 -3.375 L 1.484375 -1.6875 L 2.65625 -1.6875 L 2.109375 -3.375 Z M 2.03125 -3.375 "/></g><g transform="translate(70.285551, 32.599871)"><path style="stroke:none" d="M 2.09375 -4.265625 C 2.78125 -4.265625 3.304688 -4.085938 3.671875 -3.734375 C 4.046875 -3.378906 4.234375 -2.847656 4.234375 -2.140625 C 4.234375 -1.429688 4.046875 -0.894531 3.671875 -0.53125 C 3.304688 -0.175781 2.78125 0 2.09375 0 L 0.5625 0 L 0.5625 -4.265625 Z M 2.046875 -0.703125 C 2.484375 -0.703125 2.8125 -0.816406 3.03125 -1.046875 C 3.25 -1.273438 3.359375 -1.640625 3.359375 -2.140625 C 3.359375 -2.640625 3.25 -3 3.03125 -3.21875 C 2.8125 -3.445312 2.484375 -3.5625 2.046875 -3.5625 L 1.40625 -3.5625 L 1.40625 -0.703125 Z M 2.046875 -0.703125 "/></g><g transform="translate(74.84965, 32.599871)"><path style="stroke:none" d="M 1.40625 -1.875 L 1.40625 -0.703125 L 3.4375 -0.703125 L 3.4375 0 L 0.5625 0 L 0.5625 -4.265625 L 3.390625 -4.265625 L 3.390625 -3.5625 L 1.40625 -3.5625 L 1.40625 -2.5625 L 3.140625 -2.5625 L 3.140625 -1.875 Z M 1.40625 -1.875 "/></g><g transform="translate(78.520202, 32.599871)"><path style="stroke:none" d="M 0.5625 0 L 0.5625 -4.265625 L 2.265625 -4.265625 C 2.710938 -4.265625 3.046875 -4.160156 3.265625 -3.953125 C 3.492188 -3.753906 3.609375 -3.476562 3.609375 -3.125 C 3.609375 -2.863281 3.539062 -2.648438 3.40625 -2.484375 C 3.28125 -2.316406 3.085938 -2.191406 2.828125 -2.109375 L 2.828125 -2.046875 C 2.960938 -1.984375 3.066406 -1.894531 3.140625 -1.78125 C 3.222656 -1.664062 3.304688 -1.5 3.390625 -1.28125 L 3.8125 0 L 2.9375 0 L 2.53125 -1.28125 C 2.476562 -1.40625 2.425781 -1.503906 2.375 -1.578125 C 2.320312 -1.648438 2.253906 -1.703125 2.171875 -1.734375 C 2.085938 -1.765625 1.984375 -1.78125 1.859375 -1.78125 L 1.40625 -1.78125 L 1.40625 0 Z M 2.171875 -2.453125 C 2.578125 -2.453125 2.78125 -2.640625 2.78125 -3.015625 C 2.78125 -3.410156 2.578125 -3.609375 2.171875 -3.609375 L 1.40625 -3.609375 L 1.40625 -2.453125 Z M 2.171875 -2.453125 "/></g><g transform="translate(82.511963, 32.599871)"><path style="stroke:none" d="M 1.890625 0.0625 C 1.597656 0.0625 1.332031 0.0234375 1.09375 -0.046875 C 0.863281 -0.117188 0.671875 -0.210938 0.515625 -0.328125 C 0.367188 -0.453125 0.253906 -0.585938 0.171875 -0.734375 L 0.640625 -1.296875 L 0.703125 -1.296875 C 0.835938 -1.109375 1.003906 -0.957031 1.203125 -0.84375 C 1.398438 -0.726562 1.628906 -0.671875 1.890625 -0.671875 C 2.117188 -0.671875 2.289062 -0.71875 2.40625 -0.8125 C 2.519531 -0.90625 2.578125 -1.035156 2.578125 -1.203125 C 2.578125 -1.304688 2.554688 -1.390625 2.515625 -1.453125 C 2.484375 -1.523438 2.421875 -1.582031 2.328125 -1.625 C 2.242188 -1.675781 2.128906 -1.722656 1.984375 -1.765625 L 1.4375 -1.890625 C 1.050781 -1.972656 0.765625 -2.113281 0.578125 -2.3125 C 0.390625 -2.519531 0.296875 -2.789062 0.296875 -3.125 C 0.296875 -3.363281 0.351562 -3.570312 0.46875 -3.75 C 0.59375 -3.9375 0.769531 -4.078125 1 -4.171875 C 1.238281 -4.273438 1.519531 -4.328125 1.84375 -4.328125 C 2.164062 -4.328125 2.441406 -4.285156 2.671875 -4.203125 C 2.910156 -4.117188 3.113281 -3.984375 3.28125 -3.796875 L 2.859375 -3.234375 L 2.78125 -3.234375 C 2.664062 -3.359375 2.53125 -3.453125 2.375 -3.515625 C 2.21875 -3.578125 2.039062 -3.609375 1.84375 -3.609375 C 1.601562 -3.609375 1.421875 -3.566406 1.296875 -3.484375 C 1.179688 -3.398438 1.125 -3.289062 1.125 -3.15625 C 1.125 -3.019531 1.164062 -2.910156 1.25 -2.828125 C 1.332031 -2.742188 1.476562 -2.679688 1.6875 -2.640625 L 2.25 -2.53125 C 2.664062 -2.4375 2.96875 -2.285156 3.15625 -2.078125 C 3.34375 -1.867188 3.4375 -1.597656 3.4375 -1.265625 C 3.4375 -0.992188 3.378906 -0.757812 3.265625 -0.5625 C 3.148438 -0.363281 2.976562 -0.207031 2.75 -0.09375 C 2.519531 0.0078125 2.234375 0.0625 1.890625 0.0625 Z M 1.890625 0.0625 "/></g></g><path style=" stroke:none;fill-rule:evenodd;fill:#534b4a;fill-opacity:1;" d="M 72.980469 3.929688 C 72.835938 3.929688 72.71875 3.964844 72.636719 4.042969 C 72.5625 4.125 72.523438 4.234375 72.523438 4.382812 C 72.523438 4.527344 72.5625 4.652344 72.660156 4.734375 C 72.734375 4.828125 72.847656 4.871094 72.984375 4.871094 L 79.464844 4.871094 L 79.464844 25.757812 C 79.464844 25.90625 79.496094 26.03125 79.558594 26.117188 C 79.632812 26.210938 79.726562 26.257812 79.863281 26.257812 C 79.996094 26.257812 80.105469 26.210938 80.175781 26.109375 C 80.273438 26.007812 80.3125 25.894531 80.3125 25.757812 L 80.3125 4.871094 L 86.824219 4.871094 C 86.941406 4.871094 87.03125 4.828125 87.125 4.734375 C 87.222656 4.652344 87.265625 4.566406 87.265625 4.441406 C 87.265625 4.273438 87.234375 4.148438 87.160156 4.066406 C 87.078125 3.976562 86.964844 3.929688 86.824219 3.929688 Z M 72.980469 3.929688 "/><path style=" stroke:none;fill-rule:evenodd;fill:#534b4a;fill-opacity:1;" d="M 37.707031 5.179688 C 38.722656 5.367188 39.632812 5.699219 40.441406 6.136719 C 41.980469 7 43.183594 8.210938 44.042969 9.78125 C 44.902344 11.34375 45.328125 13.078125 45.328125 14.980469 C 45.328125 16.734375 44.964844 18.367188 44.242188 19.863281 C 43.519531 21.34375 42.503906 22.550781 41.207031 23.496094 C 40.378906 24.09375 39.476562 24.523438 38.503906 24.808594 C 37.53125 25.066406 36.316406 25.203125 34.863281 25.203125 L 29.992188 25.203125 L 29.992188 4.871094 L 33.75 4.871094 C 35.375 4.871094 36.695312 4.972656 37.707031 5.179688 Z M 40.464844 5.074219 C 39.605469 4.679688 38.660156 4.382812 37.632812 4.191406 C 36.605469 4.023438 35.425781 3.929688 34.074219 3.929688 L 29.792969 3.929688 C 29.613281 3.929688 29.449219 3.964844 29.308594 4.042969 C 29.1875 4.132812 29.125 4.269531 29.125 4.460938 L 29.125 25.417969 C 29.125 25.679688 29.164062 25.859375 29.261719 25.972656 C 29.363281 26.074219 29.542969 26.132812 29.792969 26.132812 L 34.410156 26.132812 C 36.410156 26.132812 37.992188 25.949219 39.152344 25.578125 C 40.316406 25.203125 41.417969 24.566406 42.441406 23.683594 C 43.648438 22.625 44.578125 21.34375 45.226562 19.835938 C 45.886719 18.328125 46.210938 16.714844 46.210938 14.980469 C 46.210938 12.78125 45.675781 10.789062 44.621094 9.011719 C 43.582031 7.222656 42.1875 5.910156 40.464844 5.074219 Z M 40.464844 5.074219 "/><path style=" stroke:none;fill-rule:evenodd;fill:#fecf02;fill-opacity:1;" d="M 52.15625 9.488281 C 52.15625 9.46875 52.175781 9.453125 52.230469 9.453125 C 51.960938 10.984375 51.582031 12.570312 51.101562 14.1875 C 51.089844 14.210938 51.089844 14.257812 51.089844 14.3125 C 50.972656 13.984375 50.953125 13.578125 51.007812 13.078125 C 51.007812 13.054688 51.007812 13.023438 51.007812 12.988281 C 51.226562 11.652344 51.601562 10.484375 52.15625 9.488281 Z M 52.796875 7.769531 C 52.816406 7.769531 52.839844 7.769531 52.859375 7.769531 C 52.359375 8.617188 51.792969 9.367188 51.175781 10.007812 L 51.175781 9.882812 C 51.527344 8.96875 52.074219 8.269531 52.796875 7.769531 Z M 54.703125 6.082031 L 54.703125 6.0625 C 55.246094 5.59375 55.875 5.222656 56.574219 4.960938 C 56.609375 4.9375 56.636719 4.929688 56.664062 4.929688 C 56 5.507812 55.339844 5.886719 54.703125 6.082031 Z M 56.492188 3.851562 C 56.523438 3.839844 56.546875 3.828125 56.574219 3.828125 C 55.152344 5.199219 53.738281 6.390625 52.324219 7.421875 L 52.324219 7.363281 C 53.386719 5.835938 54.765625 4.667969 56.492188 3.851562 Z M 68.21875 10.160156 C 68.210938 10.144531 68.210938 10.109375 68.210938 10.066406 C 68.671875 10.710938 68.972656 11.519531 69.117188 12.476562 C 69.117188 12.511719 69.117188 12.546875 69.117188 12.570312 C 68.765625 11.832031 68.460938 11.03125 68.21875 10.160156 Z M 69.527344 9.261719 C 69.527344 9.226562 69.527344 9.195312 69.527344 9.175781 C 70.3125 10.417969 70.792969 11.996094 70.972656 13.878906 C 70.972656 13.917969 70.972656 13.953125 70.972656 13.984375 C 70.460938 12.445312 69.976562 10.871094 69.527344 9.261719 Z M 62.535156 4.828125 C 63.070312 4.996094 63.5625 5.207031 64.019531 5.457031 C 62.175781 4.972656 60.074219 4.878906 57.707031 5.1875 L 57.707031 5.140625 C 59.195312 4.339844 60.804688 4.234375 62.535156 4.828125 Z M 64.429688 6.320312 C 64.398438 6.296875 64.386719 6.273438 64.386719 6.265625 C 65.832031 6.792969 66.910156 7.734375 67.609375 9.070312 C 67.632812 9.09375 67.644531 9.128906 67.644531 9.175781 C 66.722656 8.222656 65.65625 7.269531 64.429688 6.320312 Z M 65.632812 5.628906 C 65.601562 5.617188 65.589844 5.59375 65.589844 5.558594 C 67.402344 6.339844 68.671875 7.714844 69.402344 9.671875 C 69.414062 9.707031 69.414062 9.730469 69.414062 9.761719 C 68.175781 8.347656 66.921875 6.976562 65.632812 5.628906 Z M 62.0625 4.5 L 62.0625 4.441406 C 63.875 4.5 65.128906 5.140625 65.851562 6.355469 C 65.867188 6.390625 65.875 6.421875 65.875 6.433594 C 64.859375 5.558594 63.582031 4.914062 62.0625 4.5 Z M 62.886719 4.03125 C 62.941406 4.046875 62.976562 4.046875 63.007812 4.046875 C 61.894531 4.167969 60.710938 4.179688 59.464844 4.089844 L 59.464844 4.046875 C 60.628906 3.761719 61.769531 3.761719 62.886719 4.03125 Z M 60.765625 3.375 L 60.765625 3.433594 C 58.839844 3.761719 57.101562 4.28125 55.5625 4.996094 L 55.5625 4.929688 C 56.703125 3.78125 58.441406 3.273438 60.765625 3.375 Z M 65.257812 4.609375 C 65.238281 4.601562 65.222656 4.578125 65.222656 4.542969 C 67.589844 5.570312 69.296875 7.316406 70.332031 9.78125 C 70.332031 9.796875 70.332031 9.832031 70.332031 9.882812 C 69.078125 7.667969 67.382812 5.910156 65.257812 4.609375 Z M 69.222656 6.480469 C 69.296875 6.582031 69.371094 6.691406 69.441406 6.808594 C 68.324219 4.996094 66.65625 3.75 64.46875 3.082031 C 64.144531 2.992188 63.863281 2.933594 63.621094 2.921875 C 59.238281 2.503906 55.84375 3.394531 53.453125 5.628906 C 52.734375 6.316406 52.082031 7.136719 51.507812 8.0625 C 50.410156 9.851562 49.5625 11.933594 48.964844 14.3125 C 48.953125 14.433594 48.953125 14.574219 48.945312 14.699219 L 49.132812 14.699219 C 49.132812 14.652344 49.132812 14.617188 49.132812 14.582031 C 49.40625 12.988281 49.886719 11.628906 50.574219 10.496094 C 50.585938 10.496094 50.597656 10.496094 50.609375 10.496094 C 50.128906 11.789062 49.84375 13.191406 49.75 14.699219 L 50.085938 14.699219 C 50.074219 14.457031 50.074219 14.222656 50.074219 13.980469 C 50.148438 13.632812 50.261719 13.339844 50.417969 13.078125 C 50.429688 13.054688 50.441406 13.023438 50.441406 12.988281 C 50.480469 13.578125 50.546875 14.140625 50.628906 14.699219 L 52.09375 14.699219 C 52.082031 14.347656 52.082031 13.980469 52.113281 13.601562 C 52.113281 13.566406 52.113281 13.519531 52.113281 13.484375 C 52.710938 9.261719 54.910156 6.792969 58.703125 6.0625 C 58.75 6.0625 58.785156 6.0625 58.816406 6.0625 C 55.917969 7.371094 54.054688 9.796875 53.242188 13.324219 C 53.152344 13.757812 53.082031 14.210938 53.027344 14.699219 L 53.152344 14.699219 C 53.789062 9.839844 56.269531 6.996094 60.609375 6.183594 C 61.246094 6.082031 61.8125 6.105469 62.285156 6.265625 C 65.644531 7.339844 67.570312 9.875 68.0625 13.894531 C 68.09375 14.179688 68.101562 14.433594 68.101562 14.699219 L 68.5625 14.699219 C 68.574219 14.300781 68.617188 13.9375 68.671875 13.601562 C 68.722656 13.746094 68.773438 13.949219 68.804688 14.1875 C 68.828125 14.355469 68.847656 14.527344 68.859375 14.699219 L 69.707031 14.699219 C 69.632812 12.125 69.003906 10.058594 67.832031 8.472656 C 69.117188 9.480469 69.925781 11.015625 70.253906 13.078125 C 70.253906 13.125 70.253906 13.15625 70.253906 13.179688 C 70.253906 13.214844 70.253906 13.257812 70.253906 13.292969 C 70.28125 13.792969 70.28125 14.257812 70.253906 14.699219 L 70.429688 14.699219 C 70.429688 14.660156 70.429688 14.617188 70.429688 14.582031 L 70.429688 14.414062 C 70.511719 14.492188 70.585938 14.597656 70.636719 14.699219 L 71.265625 14.699219 C 71.265625 14.347656 71.253906 13.976562 71.246094 13.601562 C 71.214844 12.660156 71.132812 11.765625 70.976562 10.9375 C 69.550781 6.492188 66.386719 3.929688 61.496094 3.25 C 61.007812 3.199219 60.578125 3.09375 60.199219 2.9375 C 64.34375 2.707031 67.351562 3.886719 69.222656 6.480469 Z M 69.222656 6.480469 "/><path style=" stroke:none;fill-rule:evenodd;fill:#fecf02;fill-opacity:1;" d="M 68.386719 20.777344 L 68.386719 20.734375 C 68.921875 19.996094 69.453125 19.273438 70 18.546875 C 70.007812 18.527344 70.03125 18.511719 70.0625 18.511719 C 69.632812 19.585938 69.066406 20.347656 68.386719 20.777344 Z M 56.117188 25.210938 C 53.027344 23.992188 51.070312 21.523438 50.25 17.808594 C 51.730469 22.238281 55.007812 24.726562 60.101562 25.269531 C 60.472656 25.304688 60.898438 25.292969 61.402344 25.261719 C 59.675781 25.941406 57.917969 25.925781 56.117188 25.210938 Z M 59.195312 23.890625 C 57.445312 23.605469 56.136719 22.828125 55.265625 21.535156 C 56.785156 22.464844 58.617188 22.996094 60.765625 23.128906 C 60.167969 23.0625 59.582031 22.925781 59.007812 22.734375 C 61.589844 22.691406 63.613281 22.046875 65.089844 20.789062 C 66.597656 19.535156 67.664062 17.808594 68.292969 15.605469 L 68.355469 15.605469 C 68.328125 17.765625 67.875 19.476562 66.984375 20.734375 C 66.984375 20.765625 66.984375 20.800781 66.984375 20.835938 C 66.328125 22.011719 65.226562 22.734375 63.664062 22.996094 C 63.257812 23.085938 62.847656 23.144531 62.449219 23.164062 C 62.617188 23.164062 62.808594 23.152344 63.007812 23.144531 C 63.414062 23.128906 63.867188 23.054688 64.355469 22.925781 C 64.746094 22.800781 65.125 22.675781 65.496094 22.53125 C 64.082031 23.902344 61.980469 24.355469 59.195312 23.890625 Z M 57.707031 26.097656 L 57.707031 26.066406 C 60.113281 26.132812 62.15625 25.792969 63.832031 25.058594 C 63.863281 25.058594 63.894531 25.058594 63.925781 25.058594 C 62.367188 26.15625 60.292969 26.496094 57.707031 26.097656 Z M 52.324219 16.800781 C 52.324219 16.769531 52.324219 16.734375 52.324219 16.714844 C 52.816406 17.699219 53.308594 18.703125 53.777344 19.734375 C 53.792969 19.746094 53.804688 19.78125 53.804688 19.8125 C 52.972656 19.167969 52.480469 18.160156 52.324219 16.800781 Z M 68.5625 14.699219 L 68.101562 14.699219 C 68.09375 15.136719 68.03125 15.546875 67.925781 15.917969 C 66.792969 19.535156 64.285156 21.625 60.378906 22.179688 C 59.089844 22.375 58.007812 22.316406 57.128906 21.988281 C 54.417969 21.058594 53.089844 18.671875 53.128906 14.808594 C 53.140625 14.777344 53.140625 14.734375 53.152344 14.699219 L 53.027344 14.699219 C 52.953125 15.441406 52.953125 16.246094 53.015625 17.109375 C 53.046875 17.347656 53.015625 17.472656 52.945312 17.503906 C 52.417969 16.835938 52.136719 15.898438 52.09375 14.699219 L 50.628906 14.699219 C 51.195312 18.628906 52.703125 21.558594 55.164062 23.472656 C 55.175781 23.480469 55.183594 23.503906 55.183594 23.539062 C 52.210938 22.097656 50.511719 19.285156 50.09375 15.082031 C 50.085938 14.957031 50.085938 14.820312 50.085938 14.699219 L 49.75 14.699219 C 49.675781 15.816406 49.714844 16.984375 49.863281 18.21875 C 50.019531 19.375 50.363281 20.347656 50.917969 21.148438 C 51.128906 21.476562 51.214844 21.773438 51.171875 22.035156 C 49.746094 20.382812 49.066406 17.933594 49.132812 14.707031 C 49.132812 14.699219 49.132812 14.699219 49.132812 14.699219 L 48.941406 14.699219 C 48.890625 15.683594 48.929688 16.554688 49.078125 17.324219 C 50.070312 22.296875 52.875 25.304688 57.496094 26.359375 C 58.667969 26.621094 59.945312 26.628906 61.316406 26.382812 C 62.761719 26.132812 64.027344 25.664062 65.109375 24.988281 C 66.898438 23.867188 68.40625 22.453125 69.628906 20.742188 C 70.6875 19.25 71.230469 17.234375 71.265625 14.699219 L 70.636719 14.699219 C 70.8125 15.027344 70.847656 15.464844 70.730469 16.023438 C 70.574219 16.894531 70.34375 17.621094 70.039062 18.21875 C 69.738281 18.773438 69.464844 19 69.222656 18.90625 C 69.601562 18.332031 69.871094 17.628906 70.039062 16.804688 C 70.046875 16.773438 70.0625 16.734375 70.0625 16.714844 C 70.289062 16.246094 70.417969 15.671875 70.425781 14.992188 C 70.425781 14.96875 70.425781 14.933594 70.425781 14.890625 C 70.425781 14.820312 70.425781 14.753906 70.425781 14.699219 L 70.25 14.699219 C 70.210938 15.296875 70.113281 15.828125 69.964844 16.316406 C 69.964844 16.339844 69.964844 16.371094 69.964844 16.40625 C 69.964844 16.441406 69.953125 16.472656 69.945312 16.507812 C 69.878906 16.949219 69.746094 17.320312 69.527344 17.605469 C 69.601562 17.175781 69.648438 16.714844 69.683594 16.203125 C 69.714844 15.683594 69.714844 15.1875 69.703125 14.699219 L 68.855469 14.699219 C 69.074219 17.347656 68.519531 19.429688 67.191406 20.9375 C 67.191406 20.878906 67.191406 20.84375 67.191406 20.832031 C 67.191406 20.796875 67.191406 20.761719 67.191406 20.730469 C 67.972656 19.542969 68.4375 17.992188 68.574219 16.101562 C 68.574219 16.078125 68.574219 16.042969 68.574219 16.011719 C 68.574219 15.976562 68.574219 15.953125 68.574219 15.917969 C 68.542969 15.488281 68.542969 15.085938 68.5625 14.699219 Z M 68.5625 14.699219 "/><path style=" stroke:none;fill-rule:evenodd;fill:#fecf02;fill-opacity:1;" d="M 22.296875 26.117188 C 22.664062 26.519531 23.09375 26.710938 23.605469 26.710938 C 24.128906 26.710938 24.570312 26.519531 24.9375 26.117188 C 25.300781 25.722656 25.480469 25.261719 25.480469 24.707031 C 25.480469 24.128906 25.300781 23.65625 24.9375 23.269531 C 24.570312 22.875 24.132812 22.675781 23.605469 22.675781 C 23.089844 22.675781 22.664062 22.875 22.296875 23.269531 C 21.929688 23.652344 21.753906 24.128906 21.753906 24.707031 C 21.753906 25.261719 21.929688 25.722656 22.296875 26.117188 Z M 22.296875 26.117188 "/><path style=" stroke:none;fill-rule:evenodd;fill:#fecf02;fill-opacity:1;" d="M 10.265625 23.265625 C 9.921875 23.652344 9.746094 24.128906 9.746094 24.707031 C 9.746094 25.261719 9.921875 25.722656 10.265625 26.117188 C 10.632812 26.515625 11.070312 26.707031 11.597656 26.707031 C 12.113281 26.707031 12.550781 26.515625 12.917969 26.117188 C 13.28125 25.722656 13.460938 25.261719 13.460938 24.707031 C 13.460938 24.128906 13.28125 23.652344 12.917969 23.265625 C 12.550781 22.871094 12.113281 22.675781 11.597656 22.675781 C 11.070312 22.675781 10.632812 22.875 10.265625 23.265625 Z M 10.265625 23.265625 "/><path style=" stroke:none;fill-rule:evenodd;fill:#fecf02;fill-opacity:1;" d="M 15.765625 24.707031 C 15.765625 25.261719 15.941406 25.722656 16.285156 26.117188 C 16.652344 26.515625 17.089844 26.707031 17.617188 26.707031 C 18.132812 26.707031 18.570312 26.515625 18.9375 26.117188 C 19.300781 25.722656 19.484375 25.261719 19.484375 24.707031 C 19.484375 24.128906 19.300781 23.652344 18.9375 23.265625 C 18.570312 22.871094 18.132812 22.675781 17.617188 22.675781 C 17.09375 22.675781 16.652344 22.871094 16.285156 23.265625 C 15.941406 23.652344 15.765625 24.128906 15.765625 24.707031 Z M 15.765625 24.707031 "/><path style="fill:none;stroke-width:0.5;stroke-linecap:butt;stroke-linejoin:miter;stroke:#4c4c4c;stroke-opacity:1;stroke-miterlimit:22.926001;" d="M 332.944754 215.463172 L 332.944754 293.695054 L 394.796085 293.695054 L 392.495068 293.695054 " transform="matrix(0.084881,0,0,0.0846342,3.872144,-1.973837)"/><path style="fill:none;stroke-width:0.5;stroke-linecap:butt;stroke-linejoin:miter;stroke:#4c4c4c;stroke-opacity:1;stroke-miterlimit:22.926001;" d="M 377.630499 249.617504 L 314.076416 311.69531 " transform="matrix(0.084881,0,0,0.0846342,3.872144,-1.973837)"/><path style="fill:none;stroke-width:0.5;stroke-linecap:butt;stroke-linejoin:miter;stroke:#4c4c4c;stroke-opacity:1;stroke-miterlimit:22.926001;" d="M 852.008118 96.523019 L 879.482258 96.523019 L 879.482258 249.294423 " transform="matrix(0.084881,0,0,0.0846342,3.872144,-1.973837)"/><path style="fill:none;stroke-width:0.5;stroke-linecap:butt;stroke-linejoin:miter;stroke:#4c4c4c;stroke-opacity:1;stroke-miterlimit:22.926001;" d="M 911.558432 95.323002 L 911.558432 296.464325 " transform="matrix(0.084881,0,0,0.0846342,3.872144,-1.973837)"/><path style="fill:none;stroke-width:0.5;stroke-linecap:butt;stroke-linejoin:miter;stroke:#4c4c4c;stroke-opacity:1;stroke-miterlimit:22.926001;" d="M 970.832625 55.260894 L 903.274772 57.707082 L 939.906959 34.122131 " transform="matrix(0.084881,0,0,0.0846342,3.872144,-1.973837)"/></g></svg>